<?xml version="1.0" encoding="utf-8"?>
<!-- Generator: Adobe Illustrator 21.1.0, SVG Export Plug-In . SVG Version: 6.00 Build 0)  -->
<svg version="1.1" id="Layer_1" xmlns="http://www.w3.org/2000/svg" xmlns:xlink="http://www.w3.org/1999/xlink" x="0px" y="0px"
	 viewBox="0 0 716 140" style="enable-background:new 0 0 716 140;" xml:space="preserve">
<style type="text/css">
	.st0{fill:#050505;}
</style>
<g>
	<ellipse transform="matrix(0.2141 -0.9768 0.9768 0.2141 -21.4602 140.2954)" class="st0" cx="76.5" cy="83.5" rx="6.1" ry="6.1"/>
	<ellipse transform="matrix(0.2141 -0.9768 0.9768 0.2141 -45.7344 116.8185)" class="st0" cx="49.7" cy="86.8" rx="9.4" ry="9.4"/>
	<ellipse transform="matrix(0.2141 -0.9768 0.9768 0.2141 -12.9125 104.0804)" class="st0" cx="58.2" cy="60.1" rx="5" ry="5"/>
	<path class="st0" d="M94.4,41.7l2.1-9.8l4.8,1.1c3.4,0.7,6.8-1.4,7.5-4.8c0.7-3.4-1.4-6.8-4.8-7.5l-11.1-2.4
		c-3.3-0.7-6.5,1.3-7.4,4.4l0,0l-5.3,24.4C93,55.2,99.7,71.1,95.3,86.9c-4.9,17.4-22.4,28.4-40.2,25.4c-20.2-3.5-33.2-23-28.8-42.8
		c3.3-15,15.6-25.7,30-27.7l5.3-24.4l0,0c0.5-3.2-1.6-6.3-4.9-7L45.6,7.9c-3.4-0.7-6.8,1.4-7.5,4.8c-0.7,3.4,1.4,6.8,4.8,7.5
		l5.4,1.2l-2,9.4C26.1,37.3,10.9,56.9,13,81.9c1.3,15,9.8,28.6,22.9,36.2c30.4,17.5,65.6,0,72.4-31C112,69.9,106.2,52.9,94.4,41.7z"
		/>
	<g>
		<g>
			<g>
				<path class="st0" d="M185.8,48.6c3.3,2.2,5.8,5.2,7.7,9.1c1.8,3.9,2.7,8.4,2.7,13.4c0,5-0.9,9.5-2.7,13.3
					c-1.8,3.8-4.4,6.8-7.6,8.8c-3.3,2.1-7,3.1-11.3,3.1c-3.3,0-6.3-0.7-9-2c-2.7-1.4-4.8-3.3-6.2-5.7v18.8c0,2-0.7,3.6-2,4.8
					c-1.3,1.2-3.1,1.8-5.3,1.8c-2.3,0-4.2-0.6-5.6-1.9c-1.4-1.3-2.1-2.9-2.1-5V52.6c0-2.1,0.7-3.8,2-5.1c1.4-1.3,3.2-1.9,5.4-1.9
					c2.3,0,4.1,0.6,5.4,1.9c1.3,1.3,2,3,2,5.1v0.8c1.5-2.5,3.6-4.5,6.3-5.9c2.7-1.4,5.8-2.1,9.2-2.1
					C178.7,45.3,182.5,46.4,185.8,48.6z M178.3,81.3c1.9-2.4,2.9-5.8,2.9-10.2c0-4.5-1-8-2.9-10.5c-1.9-2.5-4.7-3.7-8.2-3.7
					c-3.5,0-6.2,1.2-8.2,3.6c-1.9,2.4-2.9,5.9-2.9,10.4c0,4.5,1,7.9,2.9,10.3c1.9,2.4,4.6,3.6,8.2,3.6
					C173.7,84.8,176.4,83.6,178.3,81.3z"/>
				<path class="st0" d="M250.4,47.4c1.4,1.3,2,3,2,5.2v36.6c0,2.1-0.7,3.7-2.1,5c-1.4,1.3-3.3,1.9-5.5,1.9c-2.1,0-3.8-0.6-5.1-1.8
					c-1.3-1.2-1.9-2.8-1.9-4.8v-1c-1.5,2.5-3.5,4.5-6,5.8c-2.5,1.3-5.3,2-8.4,2c-6.2,0-10.8-1.7-13.8-5.1c-3-3.4-4.5-8.6-4.5-15.5
					v-23c0-2.2,0.7-3.9,2-5.2c1.4-1.3,3.2-1.9,5.5-1.9c2.3,0,4.2,0.6,5.5,1.9c1.3,1.3,2,3,2,5.2v23.3c0,2.9,0.6,5.1,1.8,6.5
					c1.2,1.4,3.1,2.1,5.6,2.1c2.9,0,5.3-1,7.1-3c1.8-2,2.7-4.6,2.7-7.9v-21c0-2.2,0.7-3.9,2-5.2c1.3-1.3,3.2-1.9,5.5-1.9
					C247.2,45.5,249.1,46.2,250.4,47.4z"/>
				<path class="st0" d="M298,46.9c1.2,1,1.7,2.6,1.7,4.6c0,2.2-0.5,3.8-1.6,4.9c-1.1,1.1-3,1.7-5.7,2l-3,0.3
					c-3.7,0.4-6.3,1.6-7.9,3.6c-1.6,2-2.4,4.6-2.4,7.7v19c0,2.3-0.7,4.1-2.1,5.3c-1.4,1.2-3.2,1.8-5.3,1.8c-2.2,0-4-0.6-5.4-1.8
					c-1.4-1.2-2.1-3-2.1-5.3V52.4c0-2.2,0.7-3.9,2.2-5.1c1.5-1.2,3.2-1.8,5.3-1.8c2,0,3.7,0.6,5,1.7c1.3,1.2,2,2.8,2,4.8v2.7
					c1.2-2.9,3-5,5.4-6.6c2.4-1.5,5.1-2.4,7.9-2.6l1.4-0.1C295.2,45.4,296.8,45.9,298,46.9z"/>
				<path class="st0" d="M345.5,48.6c3.3,2.2,5.8,5.2,7.7,9.1c1.8,3.9,2.7,8.4,2.7,13.4c0,5-0.9,9.5-2.7,13.3
					c-1.8,3.8-4.4,6.8-7.6,8.8c-3.3,2.1-7,3.1-11.3,3.1c-3.3,0-6.3-0.7-9-2c-2.7-1.4-4.8-3.3-6.2-5.7v18.8c0,2-0.7,3.6-2,4.8
					c-1.3,1.2-3.1,1.8-5.3,1.8c-2.3,0-4.2-0.6-5.6-1.9c-1.4-1.3-2.1-2.9-2.1-5V52.6c0-2.1,0.7-3.8,2-5.1c1.4-1.3,3.2-1.9,5.4-1.9
					c2.3,0,4.1,0.6,5.4,1.9c1.3,1.3,2,3,2,5.1v0.8c1.5-2.5,3.6-4.5,6.3-5.9c2.7-1.4,5.8-2.1,9.2-2.1
					C338.5,45.3,342.2,46.4,345.5,48.6z M338.1,81.3c1.9-2.4,2.9-5.8,2.9-10.2c0-4.5-1-8-2.9-10.5c-1.9-2.5-4.7-3.7-8.2-3.7
					c-3.5,0-6.2,1.2-8.2,3.6c-1.9,2.4-2.9,5.9-2.9,10.4c0,4.5,1,7.9,2.9,10.3c1.9,2.4,4.6,3.6,8.2,3.6
					C333.4,84.8,336.1,83.6,338.1,81.3z"/>
				<path class="st0" d="M367.2,94.3c-1.4-1.2-2.1-3-2.1-5.3V31.8c0-2.3,0.7-4.1,2.1-5.3c1.4-1.2,3.2-1.8,5.4-1.8
					c2.1,0,3.9,0.6,5.3,1.8c1.4,1.2,2.1,3,2.1,5.3V89c0,2.3-0.7,4.1-2.1,5.3c-1.4,1.2-3.2,1.8-5.3,1.8
					C370.5,96.1,368.6,95.5,367.2,94.3z"/>
				<path class="st0" d="M434.2,82.5c0.8,1.1,1.2,2.4,1.2,4.1c0,1.1-0.3,2.2-1,3.1c-0.7,1-1.6,1.8-2.8,2.4c-2.3,1.2-4.9,2.2-7.9,2.9
					c-3,0.8-5.7,1.1-8.3,1.1c-5.3,0-9.9-1-13.9-3.1c-4-2.1-7-5-9.1-8.8c-2.1-3.8-3.2-8.3-3.2-13.5c0-5,1-9.4,3.1-13.3
					c2.1-3.9,4.9-6.9,8.6-9c3.7-2.2,7.8-3.2,12.5-3.2c4.5,0,8.4,1,11.7,2.9c3.4,2,6,4.8,7.8,8.4c1.9,3.6,2.8,7.9,2.8,12.7
					c0,1.5-0.3,2.6-1,3.3c-0.7,0.8-1.7,1.1-2.9,1.1h-27.9c0.5,3.9,1.7,6.8,3.6,8.5c1.9,1.8,4.7,2.6,8.3,2.6c1.9,0,3.7-0.2,5.2-0.7
					c1.5-0.5,3.2-1.1,5.1-1.9c0.9-0.4,1.8-0.7,2.7-1c0.9-0.3,1.6-0.4,2.3-0.4C432.3,80.9,433.4,81.4,434.2,82.5z M406.9,58.4
					c-1.7,1.8-2.8,4.5-3.1,7.9h19.2c-0.2-3.5-1.1-6.2-2.6-8c-1.6-1.8-3.8-2.7-6.6-2.7C410.9,55.7,408.7,56.6,406.9,58.4z"/>
				<path class="st0" d="M507,50.5c2.9,3.1,4.3,7.7,4.3,13.9v28.4c0,0.9-0.3,1.7-0.8,2.2c-0.5,0.6-1.3,0.8-2.2,0.8
					c-0.9,0-1.7-0.3-2.2-0.8c-0.5-0.6-0.8-1.3-0.8-2.2v-6c-1.4,3-3.4,5.3-6.1,6.9c-2.7,1.6-5.7,2.4-9.2,2.4c-3.1,0-6-0.6-8.6-1.9
					c-2.6-1.3-4.6-3-6.1-5.3c-1.5-2.3-2.2-4.7-2.2-7.5c0-3.6,0.9-6.4,2.8-8.4c1.9-2,4.9-3.4,9.3-4.3c4.3-0.9,10.3-1.3,18-1.3h2.1
					v-3.7c0-4.4-0.9-7.6-2.7-9.6c-1.8-2-4.6-3-8.5-3c-4.9,0-9.6,1.3-14.1,3.9c-0.2,0.1-0.7,0.5-1.5,1c-0.8,0.6-1.5,0.8-2.1,0.8
					c-0.7,0-1.2-0.2-1.6-0.7c-0.4-0.5-0.6-1.1-0.6-1.8c0-1.5,1.2-2.9,3.5-4.3c2.3-1.3,4.9-2.4,7.8-3.1c2.9-0.7,5.7-1.1,8.5-1.1
					C499.8,45.9,504.1,47.5,507,50.5z M501.2,86.5c2.8-2.9,4.1-6.6,4.1-11.2V72h-1.9c-6.4,0-11.3,0.3-14.6,0.8
					c-3.4,0.5-5.8,1.4-7.2,2.7c-1.4,1.3-2.1,3.2-2.1,5.6c0,2.8,1.1,5.1,3.2,6.9c2.1,1.8,4.7,2.7,7.9,2.7
					C495,90.9,498.5,89.4,501.2,86.5z"/>
				<path class="st0" d="M567.5,25.6c0.6,0.6,0.8,1.3,0.8,2.2v65c0,0.9-0.3,1.7-0.8,2.2c-0.6,0.6-1.3,0.8-2.2,0.8
					c-0.9,0-1.7-0.3-2.2-0.8c-0.5-0.6-0.8-1.3-0.8-2.2v-6.6c-1.5,3.3-3.6,5.7-6.5,7.4c-2.9,1.7-6.2,2.5-10.2,2.5
					c-4.3,0-8-1-11.3-3.1c-3.3-2.1-5.8-5-7.6-8.9c-1.8-3.8-2.7-8.3-2.7-13.3c0-5,0.9-9.4,2.7-13.1c1.8-3.8,4.3-6.7,7.6-8.7
					c3.3-2.1,7-3.1,11.3-3.1c3.9,0,7.3,0.8,10.2,2.5c2.9,1.7,5,4.2,6.5,7.4V27.8c0-0.9,0.3-1.7,0.8-2.2c0.5-0.6,1.3-0.8,2.2-0.8
					C566.2,24.7,567,25,567.5,25.6z M558.1,85.6c2.8-3.4,4.1-8.3,4.1-14.6c0-6.3-1.4-11.2-4.1-14.6c-2.7-3.5-6.6-5.2-11.7-5.2
					c-5.1,0-9.1,1.7-11.9,5.1c-2.8,3.4-4.2,8.3-4.2,14.5c0,6.3,1.4,11.2,4.2,14.7c2.8,3.5,6.7,5.2,11.8,5.2
					C551.5,90.8,555.4,89.1,558.1,85.6z"/>
				<path class="st0" d="M585.2,95.2c-0.6-0.5-0.8-1.3-0.8-2.3V27.8c0-1,0.3-1.8,0.8-2.3c0.6-0.5,1.3-0.8,2.2-0.8
					c0.9,0,1.6,0.3,2.1,0.8c0.6,0.5,0.8,1.3,0.8,2.3v65.1c0,1-0.3,1.8-0.8,2.3c-0.6,0.5-1.3,0.8-2.1,0.8
					C586.5,96,585.7,95.7,585.2,95.2z"/>
				<path class="st0" d="M638.7,50.5c2.9,3.1,4.3,7.7,4.3,13.9v28.4c0,0.9-0.3,1.7-0.8,2.2c-0.5,0.6-1.3,0.8-2.2,0.8
					c-0.9,0-1.7-0.3-2.2-0.8c-0.5-0.6-0.8-1.3-0.8-2.2v-6c-1.4,3-3.4,5.3-6.1,6.9c-2.7,1.6-5.7,2.4-9.2,2.4c-3.1,0-6-0.6-8.6-1.9
					c-2.6-1.3-4.6-3-6.1-5.3c-1.5-2.3-2.2-4.7-2.2-7.5c0-3.6,0.9-6.4,2.8-8.4c1.9-2,4.9-3.4,9.3-4.3c4.3-0.9,10.3-1.3,18-1.3h2.1
					v-3.7c0-4.4-0.9-7.6-2.7-9.6c-1.8-2-4.6-3-8.5-3c-4.9,0-9.6,1.3-14.1,3.9c-0.2,0.1-0.7,0.5-1.5,1c-0.8,0.6-1.5,0.8-2.1,0.8
					c-0.7,0-1.2-0.2-1.6-0.7c-0.4-0.5-0.6-1.1-0.6-1.8c0-1.5,1.2-2.9,3.5-4.3c2.3-1.3,4.9-2.4,7.8-3.1c2.9-0.7,5.7-1.1,8.5-1.1
					C631.4,45.9,635.8,47.5,638.7,50.5z M632.9,86.5c2.8-2.9,4.1-6.6,4.1-11.2V72h-1.9c-6.4,0-11.3,0.3-14.6,0.8
					c-3.4,0.5-5.8,1.4-7.2,2.7c-1.4,1.3-2.1,3.2-2.1,5.6c0,2.8,1.1,5.1,3.2,6.9c2.1,1.8,4.7,2.7,7.9,2.7
					C626.6,90.9,630.1,89.4,632.9,86.5z"/>
				<path class="st0" d="M692.8,49c3.3,2.1,5.8,5,7.6,8.7c1.8,3.8,2.7,8.1,2.7,13.1c0,5-0.9,9.5-2.7,13.3c-1.8,3.8-4.3,6.8-7.6,8.9
					c-3.3,2.1-7,3.1-11.3,3.1c-3.9,0-7.3-0.8-10.2-2.5c-2.9-1.7-5-4.2-6.5-7.4v6.6c0,0.9-0.3,1.7-0.8,2.2c-0.5,0.6-1.3,0.8-2.2,0.8
					c-0.9,0-1.7-0.3-2.2-0.8c-0.6-0.6-0.8-1.3-0.8-2.2v-65c0-0.9,0.3-1.7,0.8-2.2c0.6-0.6,1.3-0.8,2.2-0.8c0.9,0,1.7,0.3,2.2,0.8
					c0.5,0.6,0.8,1.3,0.8,2.2v28.1c1.5-3.3,3.6-5.7,6.5-7.4c2.9-1.7,6.2-2.5,10.2-2.5C685.8,45.9,689.6,47,692.8,49z M692.6,85.5
					c2.8-3.5,4.2-8.4,4.2-14.6c0-6.2-1.4-11.1-4.2-14.5c-2.8-3.4-6.8-5.1-11.9-5.1c-5,0-8.9,1.7-11.7,5.2c-2.7,3.5-4.1,8.3-4.1,14.6
					c0,6.3,1.4,11.2,4.1,14.6c2.8,3.4,6.7,5.1,11.7,5.1C685.8,90.8,689.8,89,692.6,85.5z"/>
			</g>
		</g>
	</g>
</g>
</svg>
